<svg xmlns="http://www.w3.org/2000/svg" width="220.18" height="66.441" viewBox="0 0 220.18 66.441">
  <g id="_2P_logo_copy" data-name="2P_logo copy" transform="translate(-303.3 -433.6)">
    <path id="Path_63727" data-name="Path 63727" d="M366.836,473.859l-23.277,23.277a9.977,9.977,0,0,1-14.076,0l-23.277-23.277a9.977,9.977,0,0,1,0-14.076l23.277-23.277a9.977,9.977,0,0,1,14.076,0l23.277,23.277A9.977,9.977,0,0,1,366.836,473.859Z" fill="#e99a00"/>
    <g id="Group_19104" data-name="Group 19104" transform="translate(315.859 454.294)">
      <path id="Path_63728" data-name="Path 63728" d="M360.86,522.175H344.008a1.878,1.878,0,0,1-1.808-1.808v-5.2a6.632,6.632,0,0,1,2.066-4.94,6.533,6.533,0,0,1,4.94-2.066h6.457a3.316,3.316,0,0,0,2.389-.969,3.39,3.39,0,0,0-2.389-5.779H344.621a1.706,1.706,0,0,1-1.259-.517,1.756,1.756,0,0,1-.549-1.291,1.878,1.878,0,0,1,1.808-1.808h11.041a6.754,6.754,0,0,1,4.972,2.066,6.937,6.937,0,0,1,0,9.879,6.88,6.88,0,0,1-4.972,2.066h-6.457a3.263,3.263,0,0,0-2.389.969,3.17,3.17,0,0,0-1,2.389v3.39H360.86a1.706,1.706,0,0,1,1.259.517,1.756,1.756,0,0,1,.549,1.291,1.738,1.738,0,0,1-.549,1.259A1.622,1.622,0,0,1,360.86,522.175Z" transform="translate(-342.2 -497.768)" fill="#fff"/>
      <path id="Path_63729" data-name="Path 63729" d="M420.208,522.107A1.878,1.878,0,0,1,418.4,520.3V499.508a1.878,1.878,0,0,1,1.808-1.808h10.266a7.055,7.055,0,0,1,7.038,7.006v.872a6.632,6.632,0,0,1-2.066,4.94,6.754,6.754,0,0,1-4.972,2.066h-8.458V520.3a1.706,1.706,0,0,1-.517,1.259A1.688,1.688,0,0,1,420.208,522.107Zm1.808-13.172h8.458a3.316,3.316,0,0,0,2.389-.969,3.263,3.263,0,0,0,.969-2.389v-.872a3.362,3.362,0,0,0-3.358-3.39h-8.458Z" transform="translate(-393.799 -497.7)" fill="#fff"/>
    </g>
    <g id="Group_19105" data-name="Group 19105" transform="translate(373.906 447.515)">
      <path id="Path_63730" data-name="Path 63730" d="M523.421,498.591c.065-.1.161-.1.291-.032l1.13.613a.174.174,0,0,1,.065.258,7.26,7.26,0,0,0-.71,1.421,4.521,4.521,0,0,0-.323,1.743,3.234,3.234,0,0,0,.291,1.453,2.147,2.147,0,0,0,.775.9,3.033,3.033,0,0,0,1.033.484,4.012,4.012,0,0,0,1.065.129,3.242,3.242,0,0,0,2.131-.678,2.708,2.708,0,0,0,.839-2.2v-5.973a.171.171,0,0,1,.194-.194h1.291a.171.171,0,0,1,.194.194v3.422a1.189,1.189,0,0,0,.484,1.033,2.3,2.3,0,0,0,1.324.355h.065a1.069,1.069,0,0,1,.613.161.789.789,0,0,1,.194.581q0,.533-.194.678a1,1,0,0,1-.613.161h-.291a2.138,2.138,0,0,1-1.647-.646v.258a4.459,4.459,0,0,1-1.227,3.293,4.825,4.825,0,0,1-3.551,1.195,6.516,6.516,0,0,1-2-.291,4.154,4.154,0,0,1-1.517-.872,3.849,3.849,0,0,1-.969-1.388,5.009,5.009,0,0,1-.355-1.9,7.024,7.024,0,0,1,.387-2.324C522.775,499.721,523.065,499.107,523.421,498.591Zm3.487-2.518a.171.171,0,0,1-.194-.194v-1.485a.171.171,0,0,1,.194-.194H528.3a.171.171,0,0,1,.194.194v1.485a.171.171,0,0,1-.194.194Z" transform="translate(-522 -488.55)" fill="#fff"/>
      <path id="Path_63731" data-name="Path 63731" d="M561.637,487.619a5.055,5.055,0,0,1,1.808.291,3.476,3.476,0,0,1,1.259.775,3.122,3.122,0,0,1,.742,1.162,4.483,4.483,0,0,1,.258,1.485,4.1,4.1,0,0,1-.484,1.937,4.2,4.2,0,0,1-1.324,1.485c.065,0,.161-.032.323-.032h2.841a1.45,1.45,0,0,1,.613.129.7.7,0,0,1,.194.581,1.039,1.039,0,0,1-.194.71.822.822,0,0,1-.613.194h-2.712c-.484,0-.969-.032-1.388-.065a3.226,3.226,0,0,1-1.259-.42,3.287,3.287,0,0,1-1.453.42c-.517.032-.969.065-1.356.065h-2.486a.705.705,0,0,1-.807-.807.809.809,0,0,1,.194-.646,1.02,1.02,0,0,1,.613-.129h3a4.49,4.49,0,0,1-1.324-1.485,3.921,3.921,0,0,1-.484-1.937,3.686,3.686,0,0,1,.258-1.485,3.586,3.586,0,0,1,.742-1.162,3.476,3.476,0,0,1,1.259-.775A4.872,4.872,0,0,1,561.637,487.619Zm0,1.582a2.3,2.3,0,0,0-1.614.581,2.138,2.138,0,0,0-.646,1.646,2.719,2.719,0,0,0,.646,1.84,4.3,4.3,0,0,0,1.582,1.13,3.964,3.964,0,0,0,1.582-1.13,2.779,2.779,0,0,0,.646-1.84,2.138,2.138,0,0,0-.646-1.646A2.045,2.045,0,0,0,561.637,489.2Zm-1.937-3.228a.171.171,0,0,1-.194-.194v-1.485a.171.171,0,0,1,.194-.194h1.388a.171.171,0,0,1,.194.194v1.485a.171.171,0,0,1-.194.194Zm2.486,0a.171.171,0,0,1-.194-.194v-1.485a.171.171,0,0,1,.194-.194h1.388a.171.171,0,0,1,.194.194v1.485a.171.171,0,0,1-.194.194Z" transform="translate(-544.752 -481.711)" fill="#fff"/>
      <path id="Path_63732" data-name="Path 63732" d="M589.707,496.336a1.449,1.449,0,0,1-.613-.129.7.7,0,0,1-.194-.581,1.039,1.039,0,0,1,.194-.71.822.822,0,0,1,.613-.194H591.1a1.025,1.025,0,0,0,.743-.226,1.188,1.188,0,0,0,.226-.839v-5.488a.171.171,0,0,1,.194-.194h1.291a.171.171,0,0,1,.194.194v5.165a1.189,1.189,0,0,0,.484,1.033,2.3,2.3,0,0,0,1.324.355h.258a1.069,1.069,0,0,1,.613.161.789.789,0,0,1,.194.581q0,.533-.194.678a1,1,0,0,1-.613.161h-.452a2.533,2.533,0,0,1-1.13-.258,1.65,1.65,0,0,1-.743-.807,2.089,2.089,0,0,1-2.131,1.065l-1.646.032Zm1.259-10.363a.171.171,0,0,1-.194-.194v-1.485a.171.171,0,0,1,.194-.194h1.388a.171.171,0,0,1,.194.194v1.485a.171.171,0,0,1-.194.194Zm2.486,0a.171.171,0,0,1-.194-.194v-1.485a.171.171,0,0,1,.194-.194h1.388a.171.171,0,0,1,.194.194v1.485a.171.171,0,0,1-.194.194Z" transform="translate(-567.302 -481.711)" fill="#fff"/>
      <path id="Path_63733" data-name="Path 63733" d="M614.973,503.878a5.24,5.24,0,0,1-1.679-.258,3.4,3.4,0,0,1-1.259-.872,2,2,0,0,1-1.1.839,4.492,4.492,0,0,1-1.259.161h-.872a.705.705,0,0,1-.807-.807.809.809,0,0,1,.194-.646,1.02,1.02,0,0,1,.613-.129h1.033a1.14,1.14,0,0,0,.452-.1.985.985,0,0,0,.42-.323,1.406,1.406,0,0,0,.291-.581,3.513,3.513,0,0,0,.1-.9c0-.129-.032-.258-.032-.387v-.42a4.676,4.676,0,0,1,1.033-3.39,4.407,4.407,0,0,1,5.747,0,4.637,4.637,0,0,1,1.033,3.39v.452a1.705,1.705,0,0,1-.032.42,1.957,1.957,0,0,0,.42,1.421,1.191,1.191,0,0,0,.839.387h.581a1.069,1.069,0,0,1,.613.161.789.789,0,0,1,.194.581q0,.533-.194.678a1,1,0,0,1-.613.161h-.452a4.117,4.117,0,0,1-.613-.032,4.568,4.568,0,0,1-.646-.129,2.142,2.142,0,0,1-.613-.291,1.5,1.5,0,0,1-.484-.517,2.95,2.95,0,0,1-1.259.872A5.035,5.035,0,0,1,614.973,503.878Zm0-7.3a1.939,1.939,0,0,0-1.679.743,3.606,3.606,0,0,0-.517,2.1,3.453,3.453,0,0,0,.517,2.131,2.417,2.417,0,0,0,3.358,0,3.453,3.453,0,0,0,.517-2.131,3.539,3.539,0,0,0-.517-2.1A1.939,1.939,0,0,0,614.973,496.582Z" transform="translate(-580.235 -489.092)" fill="#fff"/>
      <path id="Path_63734" data-name="Path 63734" d="M645.607,492.882a1.449,1.449,0,0,1-.613-.129.7.7,0,0,1-.194-.581,1.039,1.039,0,0,1,.194-.71.822.822,0,0,1,.613-.194H646.9a1.025,1.025,0,0,0,.742-.226,1.188,1.188,0,0,0,.226-.839V479.194a.171.171,0,0,1,.194-.194h1.291a.171.171,0,0,1,.194.194V490.3a2.89,2.89,0,0,1-.549,1.937,2.3,2.3,0,0,1-1.84.613l-1.55.032Z" transform="translate(-605.155 -478.257)" fill="#fff"/>
      <path id="Path_63735" data-name="Path 63735" d="M670.279,492.689a.171.171,0,0,1-.194.194h-1.291a.171.171,0,0,1-.194-.194V479.194a.171.171,0,0,1,.194-.194h1.291a.171.171,0,0,1,.194.194Z" transform="translate(-621.271 -478.257)" fill="#fff"/>
      <path id="Path_63736" data-name="Path 63736" d="M697.524,491.751c.065-.1.161-.1.291-.032l1.13.613a.174.174,0,0,1,.065.258,7.26,7.26,0,0,0-.71,1.421,4.521,4.521,0,0,0-.323,1.743,3.234,3.234,0,0,0,.291,1.453,2.147,2.147,0,0,0,.775.9,3.033,3.033,0,0,0,1.033.484,4.012,4.012,0,0,0,1.065.129,3.242,3.242,0,0,0,2.131-.678,2.708,2.708,0,0,0,.839-2.2V488.1a.171.171,0,0,1,.194-.194h1.291a.171.171,0,0,1,.194.194v.71a13.945,13.945,0,0,1,2.228-.9,8.192,8.192,0,0,1,2.518-.355,6.088,6.088,0,0,1,2.357.387,4.024,4.024,0,0,1,1.517,1.065,3.52,3.52,0,0,1,.775,1.55,6.925,6.925,0,0,1,.226,1.872,9.994,9.994,0,0,1-.161,1.84,2.42,2.42,0,0,1-.549,1.195,1.984,1.984,0,0,1-.969.646,4.578,4.578,0,0,1-1.421.194h-6.489a4.05,4.05,0,0,1-1.356,3,5.051,5.051,0,0,1-3.422,1.065,6.517,6.517,0,0,1-2-.291,4.155,4.155,0,0,1-1.517-.872,3.848,3.848,0,0,1-.969-1.388,5.008,5.008,0,0,1-.355-1.9,7.024,7.024,0,0,1,.387-2.324A9.774,9.774,0,0,1,697.524,491.751Zm12.914-2.55a5.754,5.754,0,0,0-1.259.129,11.432,11.432,0,0,0-1.227.291,11.676,11.676,0,0,0-1.13.42c-.355.161-.678.291-1,.452v4.262h5.94a3.614,3.614,0,0,0,.936-.1,1.185,1.185,0,0,0,.581-.355,1.424,1.424,0,0,0,.258-.71,6.277,6.277,0,0,0,.065-1.162,5.575,5.575,0,0,0-.161-1.356,2.123,2.123,0,0,0-.517-1,2.491,2.491,0,0,0-.969-.613A4.01,4.01,0,0,0,710.437,489.2Zm-.613-3.228a.171.171,0,0,1-.194-.194v-1.485a.171.171,0,0,1,.194-.194h1.388a.171.171,0,0,1,.194.194v1.485a.171.171,0,0,1-.194.194Z" transform="translate(-639.961 -481.711)" fill="#fff"/>
      <path id="Path_63737" data-name="Path 63737" d="M759.494,508.6a.171.171,0,0,1-.194-.194v-1.195a.171.171,0,0,1,.194-.194h.484q1.646,0,1.646-1.743v-8.878a.171.171,0,0,1,.194-.194h1.291a.171.171,0,0,1,.194.194v5.165a1.189,1.189,0,0,0,.484,1.033,2.3,2.3,0,0,0,1.324.355h.226a1.07,1.07,0,0,1,.613.161.789.789,0,0,1,.194.581q0,.533-.194.678a1,1,0,0,1-.613.161h-.42a2.138,2.138,0,0,1-1.647-.646v1.356a3.536,3.536,0,0,1-.839,2.518,3.251,3.251,0,0,1-2.454.872l-.484-.032Z" transform="translate(-682.689 -489.905)" fill="#fff"/>
      <path id="Path_63738" data-name="Path 63738" d="M782.06,495a5.006,5.006,0,0,1,3.228.872,2.825,2.825,0,0,1,1.033,2.324,3.344,3.344,0,0,1-.226,1.259,4.368,4.368,0,0,1-.549,1.1,6.928,6.928,0,0,1-.742.9,4.876,4.876,0,0,1-.839.646.894.894,0,0,0,.291.032h3.325a1.449,1.449,0,0,1,.613.129.7.7,0,0,1,.194.581,1.039,1.039,0,0,1-.194.71.822.822,0,0,1-.613.194h-2.873a6.339,6.339,0,0,1-1.388-.129,4.249,4.249,0,0,1-1.259-.484,3.91,3.91,0,0,1-1.421.484,7.322,7.322,0,0,1-1.356.129h-2.776a.705.705,0,0,1-.807-.807.809.809,0,0,1,.194-.646,1.02,1.02,0,0,1,.613-.129h2.647a6.27,6.27,0,0,0,.71-.032,8.039,8.039,0,0,0,1.033-.194,5.005,5.005,0,0,0-.452-1.388,4.445,4.445,0,0,0-.646-1,6.064,6.064,0,0,0-.807-.775,9.136,9.136,0,0,0-.9-.646.5.5,0,0,1-.226-.226.459.459,0,0,1-.065-.194v-1.227a.48.48,0,0,1,.194-.42c.161-.1.387-.194.646-.323s.581-.226.9-.355a10.381,10.381,0,0,1,1.162-.258A6.432,6.432,0,0,1,782.06,495Zm0,1.582a5.8,5.8,0,0,0-2.518.517,5.9,5.9,0,0,1,1.84,1.647,6.414,6.414,0,0,1,1.13,2.518,7.724,7.724,0,0,0,.71-.517c.258-.226.452-.452.678-.678a3.564,3.564,0,0,0,.484-.839,2.432,2.432,0,0,0,.194-.936,1.7,1.7,0,0,0-.194-.839,1.325,1.325,0,0,0-.516-.517,2.757,2.757,0,0,0-.775-.291C782.738,496.614,782.415,496.582,782.06,496.582Z" transform="translate(-693.795 -489.092)" fill="#fff"/>
      <path id="Path_63739" data-name="Path 63739" d="M810.907,492.882a1.449,1.449,0,0,1-.613-.129.7.7,0,0,1-.194-.581,1.039,1.039,0,0,1,.194-.71.822.822,0,0,1,.613-.194H812.2a1.025,1.025,0,0,0,.743-.226,1.189,1.189,0,0,0,.226-.839V479.194a.171.171,0,0,1,.194-.194h1.291a.171.171,0,0,1,.194.194V490.3a2.89,2.89,0,0,1-.549,1.937,2.3,2.3,0,0,1-1.84.613l-1.55.032Z" transform="translate(-717.089 -478.257)" fill="#fff"/>
      <path id="Path_63740" data-name="Path 63740" d="M835.579,492.689a.171.171,0,0,1-.194.194h-1.291a.171.171,0,0,1-.194-.194V479.194a.171.171,0,0,1,.194-.194h1.291a.171.171,0,0,1,.194.194Z" transform="translate(-733.205 -478.257)" fill="#fff"/>
      <path id="Path_63741" data-name="Path 63741" d="M866.808,485.926v-.872a.171.171,0,0,1,.194-.194h1.291a.171.171,0,0,1,.194.194v6.909a1.138,1.138,0,0,0,.226.839.976.976,0,0,0,.743.226h.9a.705.705,0,0,1,.807.807.809.809,0,0,1-.194.646,1.02,1.02,0,0,1-.613.129h-1.195a2.614,2.614,0,0,1-1.55-.387,1.906,1.906,0,0,1-.743-1.259,2.61,2.61,0,0,1-.969.549,3.819,3.819,0,0,1-1.259.194,4.473,4.473,0,0,1-1.485-.226,3.957,3.957,0,0,1-1.195-.678,3.663,3.663,0,0,1-.775-1.162,4.343,4.343,0,0,1-.291-1.679,4.967,4.967,0,0,1,.323-1.937,3.644,3.644,0,0,1,.872-1.259,3.066,3.066,0,0,1,1.227-.678,5.46,5.46,0,0,1,1.453-.226l2.034.065Zm-2.1,6.231a1.885,1.885,0,0,0,1.646-.678,3.259,3.259,0,0,0,.484-1.9V487.54h-2.034a2.212,2.212,0,0,0-1.55.549,2.568,2.568,0,0,0-.613,1.937,2.088,2.088,0,0,0,.549,1.614A2.014,2.014,0,0,0,864.709,492.157Zm-1.776-8.685a.171.171,0,0,1-.194-.194v-1.485a.171.171,0,0,1,.194-.194h1.388a.171.171,0,0,1,.194.194v1.485a.171.171,0,0,1-.194.194Zm2.486,0a.171.171,0,0,1-.194-.194v-1.485a.171.171,0,0,1,.194-.194h1.388a.171.171,0,0,1,.194.194v1.485a.171.171,0,0,1-.194.194Z" transform="translate(-751.488 -480.018)" fill="#fff"/>
      <path id="Path_63742" data-name="Path 63742" d="M892.255,484.653h1.808a3.621,3.621,0,0,1,2.518.872,3.549,3.549,0,0,1,.969,2.744V489.5a7.75,7.75,0,0,1-.161,1.679,2.379,2.379,0,0,1-.549,1.065,1.856,1.856,0,0,1-.9.549,5.111,5.111,0,0,1-1.324.161h-6a.705.705,0,0,1-.807-.807.809.809,0,0,1,.194-.646,1.02,1.02,0,0,1,.613-.129H894a3.346,3.346,0,0,0,.9-.1.846.846,0,0,0,.517-.323,1.243,1.243,0,0,0,.258-.549,3.419,3.419,0,0,0,.065-.872v-1.259c0-1.388-.775-2.066-2.324-2.066h-3.293a.171.171,0,0,1-.194-.194v-1.13a.458.458,0,0,1,.065-.194c.065-.065.1-.1.1-.129l4.455-5.262a.174.174,0,0,1,.258-.065l.969.807a.2.2,0,0,1,.065.291Z" transform="translate(-769.704 -478.39)" fill="#fff"/>
      <path id="Path_63743" data-name="Path 63743" d="M921.794,508.6a.171.171,0,0,1-.194-.194v-1.195a.171.171,0,0,1,.194-.194h.484q1.646,0,1.646-1.743v-8.878a.171.171,0,0,1,.194-.194h1.291a.171.171,0,0,1,.194.194v5.165a1.188,1.188,0,0,0,.484,1.033,2.3,2.3,0,0,0,1.324.355h.226a1.07,1.07,0,0,1,.613.161.789.789,0,0,1,.194.581q0,.533-.194.678a1,1,0,0,1-.613.161h-.42a2.138,2.138,0,0,1-1.647-.646v1.356a3.536,3.536,0,0,1-.839,2.518,3.251,3.251,0,0,1-2.454.872l-.484-.032Z" transform="translate(-792.592 -489.905)" fill="#fff"/>
      <path id="Path_63744" data-name="Path 63744" d="M945.106,491.325a2.532,2.532,0,0,1-1.13-.258,1.65,1.65,0,0,1-.743-.807,2.089,2.089,0,0,1-2.131,1.065h-2.2a1.45,1.45,0,0,1-.613-.129.7.7,0,0,1-.194-.581,1.039,1.039,0,0,1,.194-.71.822.822,0,0,1,.613-.194h1.9a1.025,1.025,0,0,0,.743-.226,1.189,1.189,0,0,0,.226-.839v-3.713a.171.171,0,0,1,.194-.194h1.291a.171.171,0,0,1,.194.194v3.422a1.189,1.189,0,0,0,.484,1.033,2.261,2.261,0,0,0,1.291.355h.517a1.025,1.025,0,0,0,.743-.226,1.189,1.189,0,0,0,.226-.839v-3.713a.171.171,0,0,1,.194-.194h1.291a.171.171,0,0,1,.194.194v3.422a1.189,1.189,0,0,0,.484,1.033,2.26,2.26,0,0,0,1.291.355h.517a1.025,1.025,0,0,0,.743-.226,1.189,1.189,0,0,0,.226-.839v-5.488a.171.171,0,0,1,.194-.194h1.291a.171.171,0,0,1,.194.194v5.521a2.891,2.891,0,0,1-.549,1.937,2.3,2.3,0,0,1-1.84.613h-.969a2.533,2.533,0,0,1-1.13-.258,1.65,1.65,0,0,1-.743-.807,2.089,2.089,0,0,1-2.131,1.065l-.872.032Zm.517-10.363a.171.171,0,0,1-.194-.194v-1.485a.171.171,0,0,1,.194-.194h1.388a.171.171,0,0,1,.194.194v1.485a.171.171,0,0,1-.194.194Zm1.259-2.389a.171.171,0,0,1-.194-.194v-1.485a.171.171,0,0,1,.194-.194h1.388a.171.171,0,0,1,.194.194v1.485a.171.171,0,0,1-.194.194Zm1.227,2.389a.171.171,0,0,1-.194-.194v-1.485a.171.171,0,0,1,.194-.194H949.5a.171.171,0,0,1,.194.194v1.485a.171.171,0,0,1-.194.194Z" transform="translate(-803.765 -476.7)" fill="#fff"/>
    </g>
    <g id="Group_19106" data-name="Group 19106" transform="translate(375.649 470.34)">
      <path id="Path_63745" data-name="Path 63745" d="M527.561,559.151c-.129,0-.161-.065-.161-.161V547.561c0-.129.065-.161.161-.161h3.906a3.662,3.662,0,0,1,2.647.9,3.21,3.21,0,0,1,.969,2.454,3.091,3.091,0,0,1-.969,2.421,3.794,3.794,0,0,1-2.647.872h-3a.086.086,0,0,0-.1.1v4.843c0,.129-.065.161-.161.161Zm3.906-6.037a2.772,2.772,0,0,0,1.969-.613,2.664,2.664,0,0,0,0-3.551,2.834,2.834,0,0,0-1.969-.646H528.5a.086.086,0,0,0-.1.1v4.584a.086.086,0,0,0,.1.1h2.97Z" transform="translate(-527.4 -547.4)" fill="#fff"/>
      <path id="Path_63746" data-name="Path 63746" d="M559.922,566.355a3.488,3.488,0,0,1-2-.549,3.232,3.232,0,0,1-1.162-1.614q-.1-.387-.194-.872a12.307,12.307,0,0,1,0-2.518,3.458,3.458,0,0,1,.194-.872,3.046,3.046,0,0,1,1.13-1.582,3.346,3.346,0,0,1,1.937-.549,3.5,3.5,0,0,1,1.937.549,3.1,3.1,0,0,1,1.162,1.582,3.458,3.458,0,0,1,.194.872,12.79,12.79,0,0,1,.065,1.324c0,.129-.065.161-.194.161H557.6c-.065,0-.1.032-.1.129a6.244,6.244,0,0,0,.032.839,3.43,3.43,0,0,0,.129.613,2.247,2.247,0,0,0,.9,1.227,2.564,2.564,0,0,0,1.453.387,3.042,3.042,0,0,0,1.388-.291,3.076,3.076,0,0,0,.936-.743.168.168,0,0,1,.258-.032l.387.355a.167.167,0,0,1,0,.258,3.478,3.478,0,0,1-1.227,1A5.492,5.492,0,0,1,559.922,566.355Zm2.163-4.875a.086.086,0,0,0,.1-.1,4.332,4.332,0,0,0-.032-.678,2.419,2.419,0,0,0-.129-.517,2.064,2.064,0,0,0-.807-1.162,2.681,2.681,0,0,0-2.776,0,2.064,2.064,0,0,0-.807,1.162,2.419,2.419,0,0,0-.129.517,4.332,4.332,0,0,0-.032.678.086.086,0,0,0,.1.1Z" transform="translate(-547.105 -554.442)" fill="#fff"/>
      <path id="Path_63747" data-name="Path 63747" d="M585.361,566.194c-.129,0-.161-.065-.161-.161v-7.91c0-.129.065-.161.161-.161h.581c.129,0,.161.065.161.161v1.065h0a2.343,2.343,0,0,1,.775-1,2.387,2.387,0,0,1,1.421-.387,3,3,0,0,1,.936.161,2.178,2.178,0,0,1,.71.42c.1.065.1.129.032.226l-.355.484a.2.2,0,0,1-.258.032,2.142,2.142,0,0,0-.613-.291,2.362,2.362,0,0,0-.71-.1,1.752,1.752,0,0,0-.936.226,2.118,2.118,0,0,0-.613.581,3.521,3.521,0,0,0-.355.872,3.856,3.856,0,0,0-.1,1.065v4.552c0,.129-.065.161-.161.161Z" transform="translate(-566.54 -554.442)" fill="#fff"/>
      <path id="Path_63748" data-name="Path 63748" d="M605.091,559.219c-.129,0-.161-.065-.161-.161v-7.135a.086.086,0,0,0-.1-.1h-.872c-.129,0-.161-.065-.161-.161v-.484c0-.129.065-.161.161-.161h.872a.086.086,0,0,0,.1-.1v-.872a4.464,4.464,0,0,1,.129-1.227,1.753,1.753,0,0,1,.387-.775,1.544,1.544,0,0,1,.71-.42,3.435,3.435,0,0,1,1.065-.129h.484c.129,0,.161.065.161.161v.549c0,.129-.065.161-.161.161h-.355a4.629,4.629,0,0,0-.775.065.8.8,0,0,0-.678.678,4.636,4.636,0,0,0-.065.775v1a.086.086,0,0,0,.1.1h1.743c.129,0,.161.065.161.161v.484c0,.129-.065.161-.161.161h-1.743a.086.086,0,0,0-.1.1v7.135c0,.129-.065.161-.161.161l-.581.032Z" transform="translate(-579.135 -547.468)" fill="#fff"/>
      <path id="Path_63749" data-name="Path 63749" d="M624.322,566.355a3.488,3.488,0,0,1-2-.549,3.232,3.232,0,0,1-1.162-1.614q-.1-.387-.194-.872a12.307,12.307,0,0,1,0-2.518,3.458,3.458,0,0,1,.194-.872,3.046,3.046,0,0,1,1.13-1.582,3.346,3.346,0,0,1,1.937-.549,3.5,3.5,0,0,1,1.937.549,3.1,3.1,0,0,1,1.162,1.582,3.458,3.458,0,0,1,.194.872,12.79,12.79,0,0,1,.065,1.324c0,.129-.065.161-.194.161H622c-.065,0-.1.032-.1.129a6.244,6.244,0,0,0,.032.839,3.43,3.43,0,0,0,.129.613,2.247,2.247,0,0,0,.9,1.227,2.564,2.564,0,0,0,1.453.387,3.042,3.042,0,0,0,1.388-.291,3.075,3.075,0,0,0,.936-.743.168.168,0,0,1,.258-.032l.387.355a.167.167,0,0,1,0,.258,3.479,3.479,0,0,1-1.227,1A5.492,5.492,0,0,1,624.322,566.355Zm2.163-4.875a.086.086,0,0,0,.1-.1,4.34,4.34,0,0,0-.032-.678,2.419,2.419,0,0,0-.129-.517,2.064,2.064,0,0,0-.807-1.162,2.681,2.681,0,0,0-2.776,0,2.064,2.064,0,0,0-.807,1.162,2.419,2.419,0,0,0-.129.517,4.332,4.332,0,0,0-.032.678.086.086,0,0,0,.1.1Z" transform="translate(-590.714 -554.442)" fill="#fff"/>
      <path id="Path_63750" data-name="Path 63750" d="M647.8,561.994c0-.484.032-.9.065-1.259a3.418,3.418,0,0,1,.194-.9,3,3,0,0,1,1.13-1.582,3.252,3.252,0,0,1,1.937-.549,3.187,3.187,0,0,1,1.647.387,3.547,3.547,0,0,1,1.13,1.162c.065.1.032.161-.065.226l-.484.323c-.1.065-.161.032-.226-.065a2.6,2.6,0,0,0-.839-.839,2.582,2.582,0,0,0-2.55.1,2.23,2.23,0,0,0-.807,1.162,4.658,4.658,0,0,0-.161.775,9.416,9.416,0,0,0-.065,1.065,5.228,5.228,0,0,0,.065,1.065,4.657,4.657,0,0,0,.161.775,2.063,2.063,0,0,0,.807,1.162,2.582,2.582,0,0,0,2.55.1,2.962,2.962,0,0,0,.839-.839c.065-.1.129-.129.226-.065l.484.323c.1.065.1.129.065.226a3.014,3.014,0,0,1-1.13,1.162,3.27,3.27,0,0,1-1.647.387,3.346,3.346,0,0,1-1.937-.549,3,3,0,0,1-1.13-1.582,6.323,6.323,0,0,1-.194-.9A12.408,12.408,0,0,1,647.8,561.994Z" transform="translate(-608.93 -554.375)" fill="#fff"/>
      <path id="Path_63751" data-name="Path 63751" d="M675.261,561.18a2.281,2.281,0,0,1-1.647-.484,2.447,2.447,0,0,1-.484-1.743v-5.133a.086.086,0,0,0-.1-.1h-.872c-.129,0-.161-.065-.161-.161v-.484c0-.129.065-.161.161-.161h.872a.086.086,0,0,0,.1-.1v-2.357c0-.129.065-.161.161-.161h.581c.129,0,.161.065.161.161v2.357a.086.086,0,0,0,.1.1h1.55c.129,0,.161.065.161.161v.484c0,.129-.065.161-.161.161h-1.55a.086.086,0,0,0-.1.1v5.1a1.49,1.49,0,0,0,.291,1.1,1.464,1.464,0,0,0,1.033.291h.323c.129,0,.161.065.161.161v.549c0,.129-.065.161-.161.161Z" transform="translate(-625.317 -549.364)" fill="#fff"/>
      <path id="Path_63752" data-name="Path 63752" d="M704.861,559.151c-.129,0-.161-.065-.161-.161V547.561c0-.129.065-.161.161-.161H708.8a3.662,3.662,0,0,1,2.647.9,3.21,3.21,0,0,1,.969,2.454,3.091,3.091,0,0,1-.969,2.421,3.794,3.794,0,0,1-2.647.872h-3.035a.086.086,0,0,0-.1.1v4.843c0,.129-.065.161-.161.161Zm3.906-6.037a2.772,2.772,0,0,0,1.969-.613,2.664,2.664,0,0,0,0-3.551,2.835,2.835,0,0,0-1.969-.646h-3a.086.086,0,0,0-.1.1v4.584a.086.086,0,0,0,.1.1h3Z" transform="translate(-647.46 -547.4)" fill="#fff"/>
      <path id="Path_63753" data-name="Path 63753" d="M760.522,566.355a3.488,3.488,0,0,1-2-.549,3.232,3.232,0,0,1-1.162-1.614q-.1-.387-.194-.872a12.307,12.307,0,0,1,0-2.518,3.456,3.456,0,0,1,.194-.872,3.046,3.046,0,0,1,1.13-1.582,3.346,3.346,0,0,1,1.937-.549,3.5,3.5,0,0,1,1.937.549,3.1,3.1,0,0,1,1.162,1.582,3.461,3.461,0,0,1,.194.872,12.79,12.79,0,0,1,.065,1.324c0,.129-.065.161-.194.161H758.2c-.065,0-.1.032-.1.129a6.244,6.244,0,0,0,.032.839,3.425,3.425,0,0,0,.129.613,2.246,2.246,0,0,0,.9,1.227,2.564,2.564,0,0,0,1.453.387,3.041,3.041,0,0,0,1.388-.291,3.076,3.076,0,0,0,.936-.743.168.168,0,0,1,.258-.032l.387.355a.167.167,0,0,1,0,.258,3.479,3.479,0,0,1-1.227,1A5.492,5.492,0,0,1,760.522,566.355Zm2.163-4.875a.086.086,0,0,0,.1-.1,4.332,4.332,0,0,0-.032-.678,2.419,2.419,0,0,0-.129-.517,2.064,2.064,0,0,0-.807-1.162,2.681,2.681,0,0,0-2.776,0,2.064,2.064,0,0,0-.807,1.162,2.419,2.419,0,0,0-.129.517,4.332,4.332,0,0,0-.032.678.086.086,0,0,0,.1.1Z" transform="translate(-682.943 -554.442)" fill="#fff"/>
      <path id="Path_63754" data-name="Path 63754" d="M738.261,566.194c-.129,0-.161-.065-.161-.161v-7.91c0-.129.065-.161.161-.161h.581c.129,0,.161.065.161.161v1.065h0a2.343,2.343,0,0,1,.775-1,2.386,2.386,0,0,1,1.42-.387,3,3,0,0,1,.936.161,2.177,2.177,0,0,1,.71.42c.1.065.1.129.032.226l-.355.484a.2.2,0,0,1-.258.032,2.141,2.141,0,0,0-.613-.291,2.361,2.361,0,0,0-.71-.1,1.752,1.752,0,0,0-.936.226,2.117,2.117,0,0,0-.613.581,3.519,3.519,0,0,0-.355.872,3.856,3.856,0,0,0-.1,1.065v4.552c0,.129-.065.161-.161.161Z" transform="translate(-670.077 -554.442)" fill="#fff"/>
      <path id="Path_63755" data-name="Path 63755" d="M784.495,566.152a5.343,5.343,0,0,1-1.033-.1,4.225,4.225,0,0,1-.9-.291,2.925,2.925,0,0,1-.71-.387,2.464,2.464,0,0,1-.549-.42.2.2,0,0,1,0-.258l.387-.42a.2.2,0,0,1,.258,0,5.008,5.008,0,0,0,1.162.678,3.852,3.852,0,0,0,1.517.291,2.756,2.756,0,0,0,1.614-.42,1.372,1.372,0,0,0,.517-1.162,2.837,2.837,0,0,0-.065-.549.9.9,0,0,0-.291-.42,1.406,1.406,0,0,0-.581-.291c-.258-.065-.549-.129-.936-.194l-.839-.1a2.872,2.872,0,0,1-1.776-.678,1.882,1.882,0,0,1-.613-1.517,2.144,2.144,0,0,1,.775-1.776,3.29,3.29,0,0,1,2.131-.646,4.733,4.733,0,0,1,1.55.226,5.937,5.937,0,0,1,1.195.549.168.168,0,0,1,.032.258l-.323.42c-.065.1-.129.1-.258.065a4.859,4.859,0,0,0-1-.452,4.261,4.261,0,0,0-1.259-.194,2.3,2.3,0,0,0-1.453.387,1.29,1.29,0,0,0-.484,1.065,1.121,1.121,0,0,0,.42.936,2.873,2.873,0,0,0,1.485.452l.839.1a3.006,3.006,0,0,1,1.808.678,1.97,1.97,0,0,1,.581,1.517,2.268,2.268,0,0,1-.807,1.872A3.284,3.284,0,0,1,784.495,566.152Z" transform="translate(-699.296 -554.239)" fill="#fff"/>
      <path id="Path_63756" data-name="Path 63756" d="M810.722,566.355a3.488,3.488,0,0,1-2-.549,3.232,3.232,0,0,1-1.162-1.614q-.1-.387-.194-.872a12.307,12.307,0,0,1,0-2.518,3.458,3.458,0,0,1,.194-.872,3.046,3.046,0,0,1,1.13-1.582,3.346,3.346,0,0,1,1.937-.549,3.5,3.5,0,0,1,1.937.549,3.1,3.1,0,0,1,1.162,1.582,3.458,3.458,0,0,1,.194.872,12.79,12.79,0,0,1,.065,1.324c0,.129-.065.161-.194.161H808.4c-.065,0-.1.032-.1.129a6.256,6.256,0,0,0,.032.839,3.43,3.43,0,0,0,.129.613,2.247,2.247,0,0,0,.9,1.227,2.564,2.564,0,0,0,1.453.387,3.041,3.041,0,0,0,1.388-.291,3.075,3.075,0,0,0,.936-.743.168.168,0,0,1,.258-.032l.387.355a.167.167,0,0,1,0,.258,3.478,3.478,0,0,1-1.227,1A5.348,5.348,0,0,1,810.722,566.355Zm2.163-4.875a.086.086,0,0,0,.1-.1,4.34,4.34,0,0,0-.032-.678,2.419,2.419,0,0,0-.129-.517,2.064,2.064,0,0,0-.807-1.162,2.681,2.681,0,0,0-2.776,0,2.064,2.064,0,0,0-.807,1.162,2.419,2.419,0,0,0-.129.517,4.332,4.332,0,0,0-.032.678.086.086,0,0,0,.1.1Z" transform="translate(-716.936 -554.442)" fill="#fff"/>
      <path id="Path_63757" data-name="Path 63757" d="M841.588,566.059c-.129,0-.161-.065-.161-.161v-4.875c0-1.647-.71-2.486-2.163-2.486a2.242,2.242,0,0,0-1.614.613,2.144,2.144,0,0,0-.646,1.679v5.036c0,.129-.065.161-.161.161h-.581c-.129,0-.161-.065-.161-.161v-7.91c0-.129.065-.161.161-.161h.581c.129,0,.161.065.161.161v.969h0a2.442,2.442,0,0,1,.936-.969,2.783,2.783,0,0,1,1.517-.355,2.683,2.683,0,0,1,2.131.807,3.4,3.4,0,0,1,.743,2.324v5.1c0,.129-.065.161-.161.161l-.581.065Z" transform="translate(-736.438 -554.307)" fill="#fff"/>
      <path id="Path_63758" data-name="Path 63758" d="M865.461,561.18a2.281,2.281,0,0,1-1.646-.484,2.447,2.447,0,0,1-.484-1.743v-5.133a.086.086,0,0,0-.1-.1h-.872c-.129,0-.161-.065-.161-.161v-.484c0-.129.065-.161.161-.161h.872a.086.086,0,0,0,.1-.1v-2.357c0-.129.065-.161.161-.161h.581c.129,0,.161.065.161.161v2.357a.086.086,0,0,0,.1.1h1.55c.129,0,.161.065.161.161v.484c0,.129-.065.161-.161.161h-1.55a.086.086,0,0,0-.1.1v5.1a1.49,1.49,0,0,0,.291,1.1,1.463,1.463,0,0,0,1.033.291h.323c.129,0,.161.065.161.161v.549c0,.129-.065.161-.161.161Z" transform="translate(-754.112 -549.364)" fill="#fff"/>
      <path id="Path_63759" data-name="Path 63759" d="M883.464,558.639a4.181,4.181,0,0,0-1.227.161,2.637,2.637,0,0,0-.839.452.2.2,0,0,1-.258,0l-.291-.42c-.065-.1-.032-.161.065-.258a2.975,2.975,0,0,1,1.1-.581,5.255,5.255,0,0,1,1.517-.194,5.686,5.686,0,0,1,1.356.129,2.157,2.157,0,0,1,.936.484,1.908,1.908,0,0,1,.549.839,3.812,3.812,0,0,1,.161,1.291v5.521c0,.129-.065.161-.161.161h-.549c-.129,0-.161-.065-.161-.161v-.872h0a1.831,1.831,0,0,1-.9.872,3.6,3.6,0,0,1-1.679.355,3.027,3.027,0,0,1-2-.613,2.233,2.233,0,0,1-.775-1.84,2.087,2.087,0,0,1,.807-1.84,3.989,3.989,0,0,1,2.324-.581h2.1a.086.086,0,0,0,.1-.1v-.839a3.6,3.6,0,0,0-.1-.872.9.9,0,0,0-.355-.581,1.893,1.893,0,0,0-.678-.323A4.208,4.208,0,0,0,883.464,558.639Zm-.226,6.877a2.761,2.761,0,0,0,1.711-.484,1.625,1.625,0,0,0,.646-1.356v-1.291a.086.086,0,0,0-.1-.1h-1.969a3.075,3.075,0,0,0-1.776.387,1.642,1.642,0,0,0-.032,2.421A2.5,2.5,0,0,0,883.238,565.516Z" transform="translate(-766.368 -554.443)" fill="#fff"/>
      <path id="Path_63760" data-name="Path 63760" d="M909.561,561.18a2.28,2.28,0,0,1-1.646-.484,2.447,2.447,0,0,1-.484-1.743v-5.133a.086.086,0,0,0-.1-.1h-.872c-.129,0-.161-.065-.161-.161v-.484c0-.129.065-.161.161-.161h.872a.086.086,0,0,0,.1-.1v-2.357c0-.129.065-.161.161-.161h.581c.129,0,.161.065.161.161v2.357a.086.086,0,0,0,.1.1h1.55c.129,0,.161.065.161.161v.484c0,.129-.065.161-.161.161h-1.517a.086.086,0,0,0-.1.1v5.1a1.49,1.49,0,0,0,.291,1.1,1.464,1.464,0,0,0,1.033.291h.323c.129,0,.161.065.161.161v.549c0,.129-.065.161-.161.161Z" transform="translate(-783.974 -549.364)" fill="#fff"/>
      <path id="Path_63761" data-name="Path 63761" d="M925.661,548.691c-.129,0-.161-.065-.161-.161v-.969c0-.129.065-.161.161-.161h.775c.129,0,.161.065.161.161v.969c0,.129-.065.161-.161.161Zm.1,10.46c-.129,0-.161-.065-.161-.161v-7.91c0-.129.065-.161.161-.161h.581c.129,0,.161.065.161.161v7.91c0,.129-.065.161-.161.161Z" transform="translate(-796.976 -547.4)" fill="#fff"/>
      <path id="Path_63762" data-name="Path 63762" d="M940.225,566.355a3.346,3.346,0,0,1-1.937-.549,3.046,3.046,0,0,1-1.13-1.582,4.081,4.081,0,0,1-.194-.9,12.409,12.409,0,0,1-.065-1.259,12.225,12.225,0,0,1,.065-1.227,6.311,6.311,0,0,1,.194-.9,3.047,3.047,0,0,1,1.13-1.582,3.693,3.693,0,0,1,3.874,0,3.1,3.1,0,0,1,1.162,1.582,4.088,4.088,0,0,1,.194.9,12.262,12.262,0,0,1,.065,1.227,12.409,12.409,0,0,1-.065,1.259,6.312,6.312,0,0,1-.194.9,2.929,2.929,0,0,1-1.162,1.582A3.252,3.252,0,0,1,940.225,566.355Zm0-.9a2.42,2.42,0,0,0,1.388-.387,2.1,2.1,0,0,0,.807-1.13,4.651,4.651,0,0,0,.161-.775,9.544,9.544,0,0,0,.065-1.1,4.911,4.911,0,0,0-.065-1.065,4.652,4.652,0,0,0-.161-.775,2.1,2.1,0,0,0-.807-1.13,2.42,2.42,0,0,0-1.388-.387,2.387,2.387,0,0,0-1.356.387,2.1,2.1,0,0,0-.807,1.13,4.658,4.658,0,0,0-.161.775,9.416,9.416,0,0,0-.065,1.065,5.4,5.4,0,0,0,.065,1.1,4.657,4.657,0,0,0,.161.775,2.1,2.1,0,0,0,.807,1.13A2.247,2.247,0,0,0,940.225,565.451Z" transform="translate(-804.695 -554.442)" fill="#fff"/>
      <path id="Path_63763" data-name="Path 63763" d="M971.288,566.059c-.129,0-.161-.065-.161-.161v-4.875c0-1.647-.71-2.486-2.163-2.486a2.242,2.242,0,0,0-1.614.613,2.144,2.144,0,0,0-.646,1.679v5.036c0,.129-.065.161-.161.161h-.581c-.129,0-.161-.065-.161-.161v-7.91c0-.129.065-.161.161-.161h.581c.129,0,.161.065.161.161v.969h0a2.442,2.442,0,0,1,.936-.969,2.783,2.783,0,0,1,1.517-.355,2.683,2.683,0,0,1,2.131.807,3.4,3.4,0,0,1,.743,2.324v5.1c0,.129-.065.161-.161.161l-.581.065Z" transform="translate(-824.265 -554.307)" fill="#fff"/>
    </g>
  </g>
</svg>
